<?xml version="1.0" encoding="utf-8"?>
<!-- Generator: Adobe Illustrator 23.1.1, SVG Export Plug-In . SVG Version: 6.00 Build 0)  -->
<svg version="1.1" id="Layer_1" xmlns="http://www.w3.org/2000/svg" xmlns:xlink="http://www.w3.org/1999/xlink" x="0px" y="0px"
	 viewBox="0 0 1920 1080" style="enable-background:new 0 0 1920 1080;" xml:space="preserve">
<style type="text/css">
	.st0{font-family:'MyriadPro-Regular';}
	.st1{font-size:12px;}
	.st2{fill:none;stroke:#000000;stroke-width:20;stroke-miterlimit:10;}
	.st3{stroke:#000000;stroke-width:20;stroke-miterlimit:10;}
	.st4{font-family:'Coniferous-Regular';}
	.st5{font-size:255.2352px;}
	.st6{font-family:'BrushScriptMT';}
</style>
<g>
	<path d="M592.8,235c43.4,0,84.3,17,115.2,48s48,71.8,48,115.2v282.7c0,43.4-17,84.3-48,115.2c-30.9,30.9-71.8,48-115.2,48H310.2
		c-43.4,0-84.3-17-115.2-48c-30.9-30.9-48-71.8-48-115.2V398.2c0-43.4,17-84.3,48-115.2c30.9-30.9,71.8-48,115.2-48H592.8
		 M592.8,195H310.2C198.4,195,107,286.4,107,398.2v282.7C107,792.6,198.4,884,310.2,884h282.7C704.6,884,796,792.6,796,680.8V398.2
		C796,286.4,704.6,195,592.8,195L592.8,195z"/>
</g>
<text transform="matrix(1 0 0 1 1738.2227 376.1113)" class="st0 st1">v</text>
<circle class="st2" cx="452.5" cy="538.5" r="165.5"/>
<circle class="st3" cx="649.5" cy="343.5" r="38.5"/>
<text transform="matrix(1 0 0 1 900.999 624.2559)" class="st4 st5"> nstagram</text>
<text transform="matrix(1 0 0 1 819.999 624.2559)" class="st6 st5">I</text>
</svg>
